<svg width="250" height="250" viewBox="0 0 131 131" fill="none" xmlns="http://www.w3.org/2000/svg">
  <path
    d="M89.0895 19.5863L121.248 79.34C122.289 81.2743 121.946 83.6615 120.402 85.224L109.485 96.2713M95.9702 109.948L109.485 96.2713M41.9105 19.5863L9.75173 79.34C8.7107 81.2743 9.05409 83.6615 10.5981 85.224L21.5149 96.2713M35.0298 109.948L21.5149 96.2713M21.5149 96.2713L37.9917 96.2965M37.9917 96.2965L62.0173 119.619C63.9573 121.502 67.0427 121.502 68.9827 119.619L93.0602 96.2462M37.9917 96.2965L27.1891 85.81C24.0005 82.7147 23.2371 77.8865 25.3152 73.9584L56.6607 14.7082C60.416 7.60993 70.584 7.60993 74.3393 14.7082L105.685 73.9584C107.763 77.8865 106.999 82.7147 103.811 85.81L93.0602 96.2462M109.485 96.2713L93.0602 96.2462M65.5 103.455L81.4853 56.9376C75.1878 56.9376 71.7975 56.9376 65.5 56.9376V29.1245L47.4085 71.9901H65.5V103.455Z"
    stroke-linejoin="round"
    stroke-linecap="round"
    stroke="#00AB67"
    stroke-width="5"
  />
</svg>